<svg width="33" height="32" viewBox="0 0 33 32" fill="none" xmlns="http://www.w3.org/2000/svg">
<g filter="url(#filter0_d_32_34)">
<path d="M6.77778 23.9999C6.01389 23.9999 5.35972 23.7391 4.81528 23.2173C4.27176 22.6946 4 22.0666 4 21.3333V7.99994C4 5.77772 4.81019 3.88883 6.43056 2.33327C8.05093 0.777717 10.0185 -6.10352e-05 12.3333 -6.10352e-05H20.6667C22.9815 -6.10352e-05 24.9491 0.777717 26.5694 2.33327C28.1898 3.88883 29 5.77772 29 7.99994V21.3333C29 22.0666 28.7282 22.6946 28.1847 23.2173C27.6403 23.7391 26.9861 23.9999 26.2222 23.9999H6.77778ZM6.77778 21.3333H26.2222V7.99994C26.2222 6.53327 25.6782 5.27772 24.5903 4.23327C23.5023 3.18883 22.1944 2.66661 20.6667 2.66661H12.3333C10.8056 2.66661 9.49769 3.18883 8.40972 4.23327C7.32176 5.27772 6.77778 6.53327 6.77778 7.99994V21.3333ZM12.3333 11.9999C11.5694 11.9999 10.9157 11.7386 10.3722 11.2159C9.82778 10.6942 9.55556 10.0666 9.55556 9.33327C9.55556 8.59994 9.82778 7.97194 10.3722 7.44927C10.9157 6.92749 11.5694 6.66661 12.3333 6.66661C13.0972 6.66661 13.7514 6.92749 14.2958 7.44927C14.8394 7.97194 15.1111 8.59994 15.1111 9.33327C15.1111 10.0666 14.8394 10.6942 14.2958 11.2159C13.7514 11.7386 13.0972 11.9999 12.3333 11.9999ZM20.6667 11.9999C19.9028 11.9999 19.2491 11.7386 18.7056 11.2159C18.1611 10.6942 17.8889 10.0666 17.8889 9.33327C17.8889 8.59994 18.1611 7.97194 18.7056 7.44927C19.2491 6.92749 19.9028 6.66661 20.6667 6.66661C21.4306 6.66661 22.0847 6.92749 22.6292 7.44927C23.1727 7.97194 23.4444 8.59994 23.4444 9.33327C23.4444 10.0666 23.1727 10.6942 22.6292 11.2159C22.0847 11.7386 21.4306 11.9999 20.6667 11.9999ZM9.55556 21.3333V18.6666C9.55556 17.9333 9.82778 17.3057 10.3722 16.7839C10.9157 16.2613 11.5694 15.9999 12.3333 15.9999H20.6667C21.4306 15.9999 22.0847 16.2613 22.6292 16.7839C23.1727 17.3057 23.4444 17.9333 23.4444 18.6666V21.3333H20.6667V18.6666H17.8889V21.3333H15.1111V18.6666H12.3333V21.3333H9.55556Z" fill="#1DCB74"/>
</g>
<defs>
<filter id="filter0_d_32_34" x="0" y="-6.10352e-05" width="33" height="32" filterUnits="userSpaceOnUse" color-interpolation-filters="sRGB">
<feFlood flood-opacity="0" result="BackgroundImageFix"/>
<feColorMatrix in="SourceAlpha" type="matrix" values="0 0 0 0 0 0 0 0 0 0 0 0 0 0 0 0 0 0 127 0" result="hardAlpha"/>
<feOffset dy="4"/>
<feGaussianBlur stdDeviation="2"/>
<feComposite in2="hardAlpha" operator="out"/>
<feColorMatrix type="matrix" values="0 0 0 0 0 0 0 0 0 0 0 0 0 0 0 0 0 0 0.25 0"/>
<feBlend mode="normal" in2="BackgroundImageFix" result="effect1_dropShadow_32_34"/>
<feBlend mode="normal" in="SourceGraphic" in2="effect1_dropShadow_32_34" result="shape"/>
</filter>
</defs>
</svg>
